<?xml version="1.0" encoding="utf-8"?>
<!-- Svg Vector Icons : http://www.onlinewebfonts.com/icon -->
<!DOCTYPE svg PUBLIC "-//W3C//DTD SVG 1.1//EN" "http://www.w3.org/Graphics/SVG/1.1/DTD/svg11.dtd">
<svg version="1.1" xmlns="http://www.w3.org/2000/svg" xmlns:xlink="http://www.w3.org/1999/xlink" x="0px" y="0px" viewBox="0 0 256 256" enable-background="new 0 0 256 256" xml:space="preserve">
<metadata> Svg Vector Icons : http://www.onlinewebfonts.com/icon </metadata>
<g><g><g><path fill="#000000" d="M142.5,10.4c-1.5,0.6-3.9,3.7-5.3,6.6c-1.1,2.3-1.2,3.1-1.2,8c0,5.3,0,5.5,1.6,8.7c2.5,4.9,5.5,6.4,8.7,4.5c2.9-1.7,3-4.8,0.5-8.2c-2.8-3.7-2.6-6.9,0.7-10.8c1.5-1.8,1.9-2.6,1.9-4.2C149.3,11.3,146,9,142.5,10.4z"/><path fill="#000000" d="M106.8,18.4c-3.5,1.1-4.6,5.3-2.1,8.1c1.4,1.5,1.5,1.5,5.3,1.5c4.8,0,6.5,0.8,8.1,4.2c0.7,1.3,1.2,2.7,1.2,3.1c0,0.9,1.7,2.6,3.3,3.2c2.6,1,5.8-0.9,6.3-3.8c0.4-2-1.2-6.2-3.5-9.1c-1.9-2.5-5.6-5.1-8.9-6.4C114,18.2,108.9,17.8,106.8,18.4z"/><path fill="#000000" d="M90.2,30.1c-7.1,2.6-12.7,10.2-12.7,17.3c0,6.9,5,14.1,11.7,17.1c1.2,0.5,3.5,1,5.2,1.1c2.9,0.2,3.2,0.2,4.6-1.1c3.7-3.3,1.3-8.6-3.9-8.6c-2.3,0-5.5-1.9-6.6-3.8c-0.7-1.2-0.9-2.5-0.9-4.7c0-3.9,1.1-5.9,4-7.4c1.7-0.9,2.6-1.1,5.1-0.9c4.6,0.3,6.9,2.6,7.5,7.2c0.4,3.6,1.1,4.8,3.2,5.6c2.1,0.9,3.9,0.5,5.5-1.2c1.2-1.2,1.3-1.7,1.3-3.9c-0.1-6.4-4.9-13.2-11.3-16.2C99.4,29,93.9,28.8,90.2,30.1z"/><path fill="#000000" d="M169.7,29.9c-7.7,2.5-13.4,11.3-12.7,19.6c0.3,3.8,1.3,5.8,3.1,6.8c1.7,0.9,3,0.9,4.7,0c2-1,3-3.4,2.3-5.7c-0.8-2.9-0.6-5.7,0.6-7.5c1.3-2.2,4.9-3.9,8.2-3.9c3.2,0,5.2,1.4,6.8,4.6c1.5,3.2,2.8,4.3,5.1,4.3c2.3,0,4.6-1.8,5-4c0.7-3.8-4.1-9.9-10-12.8c-2.9-1.3-4.1-1.6-7.3-1.8C173.1,29.2,171,29.4,169.7,29.9z"/><path fill="#000000" d="M128.9,43c-7.1,1.9-12.7,9.2-13.2,17.1c-0.1,2,0,4.5,0.3,5.5c1.2,4.2,5.7,5.8,8.6,2.9c1.4-1.4,1.5-1.5,1.1-4.8c-0.5-4.6-0.4-5.9,0.8-7.6c1.2-2,5.1-3.9,7.8-3.9c3.5,0,5.8,1.7,7.6,5.7c1.7,3.6,5.4,4.6,8,2.1c2.1-2,2.2-3.6,0.5-7c-2.5-5-7.6-8.8-13.6-10C133.6,42.2,131.9,42.2,128.9,43z"/><path fill="#000000" d="M67.9,56.8c-7,2.4-12,7.8-13.4,14.7c-0.8,3.5,0.1,8,2.2,11.5c0.9,1.5,1.6,2.7,1.6,2.8S57.2,86,55.7,86c-3.5,0-5.7,1-6.6,3c-0.7,1.5-0.6,2.8,2.3,28.3c1.7,14.7,5.6,48.7,8.7,75.5c3.1,26.8,5.7,49.3,5.9,49.9c0.1,0.6,0.8,1.6,1.4,2.3l1.1,1.1h59.3h59.3l1.2-1.2c0.7-0.7,1.3-2,1.5-2.9c0.8-4.9,17.3-148.9,17.3-150.6c0-1.6-0.3-2.3-1.5-3.5c-1.3-1.3-1.8-1.5-4.9-1.7l-3.5-0.2l1.4-2.1c2.2-3.4,2.9-6.3,2.7-10.4c-0.3-4.5-1.9-8.1-5.3-11.5c-4-4-10.7-6.6-14.5-5.7c-3.4,0.9-4.7,5.7-2.2,8.2c1,1,1.9,1.4,4.3,1.6c1.7,0.2,3.7,0.8,4.6,1.3c3,1.9,4.4,7.2,2.8,10.9c-0.8,2.1-3.2,4-5.3,4.3c-3.5,0.6-5.3,1.2-6,2.3l-0.8,1.2h-13.5h-13.5l-0.3-1.1c-0.9-3.3,0.6-6.6,3.9-8.8c3.9-2.7,7.2-2.2,10.9,1.5c2.1,2,2.5,2.3,4.4,2.3c2.8,0,4.8-1.9,4.8-4.6c0-6.1-10.4-11.5-19.1-10c-4.3,0.7-7.1,2.3-9.9,5.3c-2.9,3.2-4.3,6.7-4.6,11.6l-0.3,3.7h-6h-6l1.3-2c2.1-3.1,3.1-6.6,2.9-10.6c0-0.6-0.7-1.7-1.4-2.5c-1.9-1.9-4.6-1.9-6.6-0.1c-1.2,1.1-1.5,1.8-1.9,4.3c-0.8,5.7-3.5,7.9-9.1,7.5c-2.1-0.1-3.5-0.5-4.4-1.1c-1.7-1.2-3.4-4.6-3.4-6.7c0-3.1-2-5.2-5-5.3c-2.2,0-4.2,1.5-4.7,3.5c-0.7,2.9,0.6,7.6,3.1,11.4l1,1.5h-7.3H87l1.9-3.7c1.4-2.6,1.9-4.4,2.1-6.5c0.3-2.9,0.2-3-1.4-4.6c-1.4-1.4-2-1.6-3.6-1.6c-2.9,0-4.5,1.7-4.9,5.5c-0.6,5.2-3.2,7.6-8.4,7.6c-5.5,0-8-2.3-8.2-7.7c-0.2-5.6,2.1-8.4,7.6-9c3.8-0.4,5.5-2,5.5-4.9c0-1.6-0.3-2.3-1.6-3.6c-1.3-1.3-1.9-1.6-3.6-1.6C71.2,56,69.2,56.3,67.9,56.8z M196.5,97.8c-0.2,1.2-14,120.6-15.6,135.1l-0.3,3.1L171,236l-9.6,0.1l0.3-3.8c0.1-2.2,1.8-30,3.7-61.9c3.8-63.4,3.7-60.3,0.8-61.7c-2.5-1.4-5.6-0.4-6.9,2.1c-0.2,0.4-2.1,28.3-4,62c-2,33.6-3.7,61.7-3.8,62.2c-0.2,1.1-0.2,1.1-9.3,1.1h-9.2l-0.1-62.7l-0.1-62.7l-1.5-1.4c-2.3-2-5.3-1.7-7.2,0.7c-0.8,0.9-0.8,5-0.8,63.5v62.6h-9.4c-5.2,0-9.4-0.1-9.4-0.4c0.1-2.6-7.2-122.9-7.6-124.1c-0.6-2.3-2.8-3.8-5.3-3.4c-2,0.2-2.9,0.8-3.8,2.7c-0.6,1.1-0.6,3.3,0.2,16.2c0.5,8.3,2.1,34.8,3.5,59.1c1.5,24.3,2.7,45.4,2.9,47l0.3,3h-9.7c-5.3,0-9.6-0.2-9.6-0.4s-3.6-31.4-8-69.3c-4.4-37.9-8-69.2-8-69.6c0-0.5,13.4-0.6,68.7-0.6h68.8L196.5,97.8z"/></g></g></g>
</svg>